<?xml version="1.0" encoding="utf-8"?>
<!-- Generator: Adobe Illustrator 21.0.2, SVG Export Plug-In . SVG Version: 6.00 Build 0)  -->
<svg version="1.1" id="Layer_1" xmlns="http://www.w3.org/2000/svg" xmlns:xlink="http://www.w3.org/1999/xlink" x="0px" y="0px"
	 viewBox="0 0 1306 452" style="enable-background:new 0 0 1306 452;" xml:space="preserve">
<style type="text/css">
	.st0{fill:none;}
	.st1{fill:#FE9104;}
</style>
<path class="st0" d="M1129.8,309.9c4.4,2.5,10.2,4.2,17.3,5.1c17.4,1.7,34.9,1.7,52.2,0c7.1-0.9,12.9-2.5,17.3-5.1
	c4.2-2.3,7.6-6,9.6-10.4c2-4.4,3-10.2,3-17.3c0-7.1-1-12.9-3-17.3c-2-4.4-5.3-8-9.6-10.3c-4.4-2.4-10.2-4.1-17.3-4.9
	c-17.4-1.7-34.9-1.7-52.2,0c-7.1,0.9-12.9,2.5-17.3,4.9c-4.3,2.3-7.6,5.9-9.6,10.3c-2,4.4-3,10.2-3,17.3c0,7.1,1,12.9,3,17.3
	C1122.2,303.9,1125.6,307.6,1129.8,309.9z"/>
<path d="M47.8,329.2c7.5,6.2,16,11,25.2,14.1c10.3,3.5,21,5.3,31.9,5.1h66.5l26.3-34h-92.8c-5.2,0-10.5-0.7-15.5-2.3
	c-4.5-1.4-8.7-3.6-12.4-6.4c-10.7-8.7-14-23.6-8-36c2-3.9,4.7-7.4,8.1-10.2c3.6-2.9,7.8-5.2,12.3-6.6c5-1.6,10.2-2.4,15.5-2.4h66.5
	l26.3-34.4h-92.8c-10.8-0.1-21.6,1.5-31.9,4.6c-9.2,2.8-17.7,7.3-25.2,13.3c-6.9,5.6-12.6,12.6-16.6,20.6c-4.1,8.2-6.1,17.3-6,26.5
	c-0.1,9.3,2,18.5,6,26.8C35.2,316.1,40.9,323.3,47.8,329.2z"/>
<path class="st1" d="M231.9,334.2c16,10.9,40.3,16.4,72.7,16.4c32.3,0,56.5-5.5,72.6-16.4c16.1-10.9,24.1-28.3,24.2-52
	c0-23.6-8.1-40.9-24.2-51.8s-40.3-16.4-72.5-16.4c-32.3,0-56.5,5.5-72.6,16.4s-24.1,28.2-24.2,51.8
	C207.8,305.9,215.8,323.3,231.9,334.2z M251.5,264.9c2-4.4,5.3-8,9.6-10.3c4.4-2.4,10.2-4.1,17.3-4.9c17.4-1.7,34.9-1.7,52.2,0
	c7.1,0.9,12.9,2.5,17.3,4.9c4.3,2.3,7.6,5.9,9.6,10.3c2,4.4,3,10.2,3,17.3c0,7.1-1,12.9-3,17.3c-2,4.4-5.3,8.1-9.6,10.4
	c-4.4,2.5-10.2,4.2-17.3,5.1c-17.4,1.7-34.9,1.7-52.2,0c-7.1-0.9-12.9-2.5-17.3-5.1c-4.3-2.3-7.6-6-9.6-10.4c-2-4.4-3-10.2-3-17.3
	C248.6,275.1,249.6,269.3,251.5,264.9z"/>
<path d="M440.6,329.2c7.5,6.2,16,11,25.2,14.1c10.3,3.5,21,5.3,31.9,5.1h66.5l26.3-34h-92.8c-5.2,0-10.5-0.7-15.5-2.3
	c-4.5-1.4-8.7-3.6-12.4-6.4c-10.7-8.7-14-23.6-8-36c2-3.9,4.7-7.4,8.1-10.2c3.6-2.9,7.8-5.2,12.3-6.6c5-1.6,10.2-2.4,15.5-2.4h66.5
	l26.3-34.4h-92.8c-10.8-0.1-21.6,1.5-31.9,4.6c-9.2,2.8-17.7,7.3-25.2,13.3c-6.9,5.6-12.6,12.6-16.6,20.6c-4.1,8.2-6.1,17.3-6,26.5
	c-0.1,9.3,2,18.5,6,26.8C428,316.1,433.7,323.3,440.6,329.2z"/>
<path d="M624.7,334.2c16,10.9,40.3,16.4,72.7,16.4c32.3,0,56.5-5.5,72.6-16.4c16.1-10.9,24.1-28.3,24.2-52
	c0-23.6-8.1-40.9-24.2-51.8c-16.2-10.9-40.3-16.4-72.5-16.4c-32.3,0-56.5,5.5-72.6,16.4s-24.1,28.2-24.2,51.8
	C600.6,305.9,608.6,323.3,624.7,334.2z M644.3,264.9c2-4.4,5.3-8,9.6-10.3c4.4-2.4,10.2-4.1,17.3-4.9c17.4-1.7,34.9-1.7,52.2,0
	c7.1,0.9,12.9,2.5,17.3,4.9c4.3,2.3,7.6,5.9,9.6,10.3c2,4.4,3,10.2,3,17.3c0,7.1-1,12.9-3,17.3c-2,4.4-5.4,8.1-9.6,10.4
	c-4.4,2.5-10.2,4.2-17.3,5.1c-17.4,1.7-34.9,1.7-52.2,0c-7.1-0.9-12.9-2.5-17.3-5.1c-4.2-2.3-7.6-6-9.6-10.4c-2-4.4-3-10.2-3-17.3
	C641.4,275.1,642.4,269.3,644.3,264.9z"/>
<path d="M909.2,329.2c7.5,6.2,16,11,25.2,14.1c10.3,3.5,21,5.3,31.9,5.1h90.8v-82.7h-84.7l-24.5,29.5h68.5v19.2h-50.1
	c-5.3,0.1-10.6-0.7-15.6-2.3c-4.5-1.4-8.7-3.6-12.4-6.4c-7.1-5.5-11.1-14-11-23c-0.1-4.5,1-8.9,3-13c2-3.9,4.8-7.4,8.2-10.2
	c3.7-3,7.9-5.3,12.4-6.8c5-1.6,10.2-2.4,15.5-2.4h68.3l26.5-34.4h-94.8c-10.8-0.1-21.6,1.5-31.9,4.6c-9.2,2.8-17.7,7.3-25.2,13.3
	c-6.9,5.6-12.6,12.6-16.6,20.6c-4.1,8.2-6.1,17.3-6,26.4c-0.1,9.3,2,18.5,6,26.8C896.6,316,902.2,323.3,909.2,329.2z"/>
<path class="st1" d="M1100.6,334.2c16,10.9,40.3,16.4,72.7,16.4c32.3,0,56.5-5.5,72.6-16.4c16.1-10.9,24.1-28.3,24.2-52
	c0-23.6-8.1-40.9-24.2-51.8c-16.2-10.9-40.3-16.4-72.5-16.4c-32.3,0-56.5,5.5-72.6,16.4c-16.1,10.9-24.1,28.2-24.2,51.8
	C1076.5,305.9,1084.5,323.3,1100.6,334.2z M1120.2,264.9c2-4.4,5.3-8,9.6-10.3c4.4-2.4,10.2-4.1,17.3-4.9c17.4-1.7,34.9-1.7,52.2,0
	c7.1,0.9,12.9,2.5,17.3,4.9c4.3,2.3,7.6,5.9,9.6,10.3c2,4.4,3,10.2,3,17.3c0,7.1-1,12.9-3,17.3c-2,4.4-5.4,8.1-9.6,10.4
	c-4.4,2.5-10.2,4.2-17.3,5.1c-17.4,1.7-34.9,1.7-52.2,0c-7.1-0.9-12.9-2.5-17.3-5.1c-4.3-2.3-7.6-6-9.6-10.4c-2-4.4-3-10.2-3-17.3
	C1117.2,275.1,1118.2,269.3,1120.2,264.9z"/>
<polygon class="st1" points="30.4,389.1 15.8,410.8 47.6,410.8 60.8,389.1 "/>
<polygon class="st1" points="281.2,403 302.5,368.5 235.2,368.5 226,385.7 190.5,385.7 199.3,368.5 141.4,368.5 127.2,391.5 
	111.3,391.5 120.8,376.9 76.7,376.9 60.8,403 87.2,403.7 77.4,421.3 123.1,421.3 127.5,410.8 162.4,410.8 153.2,425 212.5,425 
	225.3,403 "/>
<path d="M473.4,118.4C726.1,232.5,1041.5,4,1291,202.9C1016.2,75.3,659.9,289.6,473.4,118.4"/>
<path class="st1" d="M27.3,103.2c50.1,30.5,108.6,44.3,167.1,39.4c44.1-5,87.8-12.6,131-22.7c203.8-47.5,303-89.8,520.8-10.1
	c-177.3-130.3-340.7-80.4-528.6-29C215.4,108.8,118.6,116.3,27.3,103.2"/>
<polygon points="487.4,370.3 487.6,370.3 487.6,370.3 "/>
<polygon points="401.6,370.3 401.9,370.3 401.9,370.3 "/>
<path d="M671.1,392.6c0.7-0.8,1.6-1.4,2.6-1.8c1-0.4,2.2-0.6,3.3-0.6h14.1l5.6-9.3H677c-2.3,0-4.6,0.4-6.8,1.3c-2,0.8-3.9,2-5.4,3.6
	c-1.5,1.6-2.7,3.5-3.5,5.6c-0.9,2.3-1.3,4.7-1.3,7.1c0,2.5,0.4,4.9,1.3,7.2c0.8,2.1,2,4.1,3.5,5.8c3.1,3.4,7.5,5.3,12.1,5.2h14.1
	l5.6-9.2H677c-1.1,0-2.2-0.2-3.3-0.6c-2-0.8-3.6-2.4-4.3-4.4c-0.4-1.1-0.6-2.3-0.6-3.5c0-1.2,0.2-2.4,0.6-3.5
	C669.8,394.3,670.4,393.4,671.1,392.6z"/>
<path d="M519.6,392.6c0.7-0.8,1.6-1.4,2.6-1.8c1-0.4,2.2-0.6,3.3-0.6h14.5l5.6-9.3h-20.1c-2.3,0-4.6,0.4-6.8,1.3
	c-2,0.8-3.8,2-5.4,3.6c-1.5,1.6-2.7,3.5-3.5,5.6c-0.9,2.3-1.3,4.7-1.3,7.1c0,2.5,0.4,4.9,1.3,7.2c0.8,2.1,2,4.1,3.5,5.8
	c3.1,3.4,7.5,5.3,12.1,5.2h19.3v-22.4h-18l-5.2,8H536v5.2h-10.6c-1.1,0-2.3-0.2-3.3-0.6c-2-0.8-3.6-2.4-4.3-4.4
	c-0.4-1.1-0.6-2.3-0.6-3.5c0-1.2,0.2-2.4,0.6-3.5C518.2,394.3,518.8,393.4,519.6,392.6z"/>
<path d="M582.9,381.4c-2-1.6-4.8-1.5-6.7,0.1c-0.9,0.8-1.6,1.7-2.2,2.8l-18,32.4h10.3l13.2-23.7l5,9.5c0.5,0.9,1,1.8,1.5,2.8
	s1,1.8,1.4,2.4c-0.8-0.1-1.6-0.1-2.4-0.1h-9.7l-5.3,9.2h32.7l-17.6-32.4C584.6,383.2,583.8,382.2,582.9,381.4z"/>
<polygon points="389.4,373.9 389.4,378.4 401.9,376.3 401.9,370.3 401.6,370.3 "/>
<polygon points="432.4,380.8 423.7,380.8 423.7,416.6 448.5,416.6 454.1,407.4 432.4,407.4 "/>
<polygon points="474.1,402.5 491.4,402.5 496.4,394.4 474.1,394.4 474.1,390.1 492.3,390.1 498,380.8 465.4,380.8 465.4,416.6 
	492.4,416.6 498,407.4 474.1,407.4 "/>
<polygon points="334.2,380.8 325.5,380.8 325.5,416.6 350.4,416.6 356,407.4 334.2,407.4 "/>
<polygon points="388.4,402.5 405.7,402.5 410.7,394.4 388.4,394.4 388.4,390.1 406.6,390.1 412.2,380.8 379.7,380.8 379.7,416.6 
	406.7,416.6 412.3,407.4 388.4,407.4 "/>
<polygon points="362.7,395.2 365.4,395.2 367.9,380.8 360.1,380.8 "/>
<path d="M639.5,401.8l-17.2-19.7c-0.5-0.7-1.1-1.2-1.9-1.6c-0.5-0.2-1.1-0.3-1.6-0.3c-0.6,0-1.2,0.1-1.8,0.4
	c-0.6,0.3-1.1,0.7-1.5,1.2c-0.5,0.6-0.8,1.3-1.1,2.1c-0.3,1-0.4,2-0.4,3v29.7h7.9v-21l17.2,19.7c0.5,0.7,1.1,1.2,1.8,1.6
	c0.5,0.2,1.1,0.3,1.7,0.3c0.6,0,1.2-0.1,1.8-0.4c0.6-0.3,1.1-0.7,1.5-1.2c0.5-0.6,0.8-1.3,1-2.1c0.3-1,0.4-2,0.4-3.1v-29.6h-7.9
	V401.8z"/>
<path d="M1109.6,384.7c-3.4-3-8.6-4.4-15.4-4.4s-12,1.5-15.4,4.4c-3.4,3-5.1,7.6-5.1,14c0,6.4,1.7,11.1,5.1,14.1
	c3.4,3,8.6,4.4,15.5,4.4c6.9,0,12.1-1.5,15.5-4.4c3.4-3,5.1-7.6,5.1-14.1C1114.8,392.3,1113.1,387.6,1109.6,384.7z M1105.5,403.4
	c-0.4,1.1-1.1,2.1-2,2.8c-1.1,0.7-2.4,1.2-3.7,1.4c-3.7,0.5-7.4,0.5-11.1,0c-1.3-0.2-2.6-0.6-3.7-1.4c-1-0.7-1.7-1.7-2-2.8
	c-0.8-3.1-0.8-6.3,0-9.4c0.4-1.1,1.1-2.1,2-2.8c1.1-0.7,2.4-1.2,3.7-1.3c3.7-0.5,7.4-0.5,11.1,0c1.3,0.2,2.6,0.6,3.7,1.3
	c1,0.7,1.7,1.7,2,2.8C1106.3,397.1,1106.3,400.3,1105.5,403.4z"/>
<polygon points="475.1,373.9 475.1,378.4 487.6,376.3 487.6,370.3 487.4,370.3 "/>
<polygon points="716.8,402.5 734.1,402.5 739.1,394.4 716.8,394.4 716.8,390.1 735,390.1 740.7,380.8 708.1,380.8 708.1,416.6 
	735.1,416.6 740.7,407.4 716.8,407.4 "/>
<path d="M1155.3,401c0,1.1-0.1,2.2-0.4,3.2c-0.3,0.9-0.8,1.6-1.4,2.2c-0.8,0.6-1.7,1-2.7,1.2c-1.4,0.3-2.8,0.4-4.2,0.4
	c-1.8,0-3.7-0.1-5.5-0.3c-1.2-0.1-2.3-0.5-3.3-1.2c-0.8-0.5-1.3-1.3-1.6-2.2c-0.3-1.1-0.5-2.2-0.4-3.3v-20.2h-8.7V401
	c0,2.4,0.3,4.8,1.1,7.1c0.7,2,1.9,3.7,3.5,5.1c1.8,1.4,3.8,2.5,6,3c2.8,0.7,5.8,1.1,8.7,1c11.7,0,17.5-5.4,17.5-16.2v-20.2h-8.7
	L1155.3,401z"/>
<polygon points="1186.1,402.5 1203.4,402.5 1208.4,394.4 1186.1,394.4 1186.1,390.1 1204.3,390.1 1209.9,380.8 1177.4,380.8 
	1177.4,416.6 1204.4,416.6 1210,407.4 1186.1,407.4 "/>
<path d="M1056.6,406.7c-0.6-0.7-1.1-1.3-1.6-1.8c1.1-0.3,2.2-0.8,3.1-1.5c0.9-0.7,1.7-1.6,2.3-2.5c0.6-1,1.1-2.2,1.4-3.4
	c0.3-1.3,0.5-2.6,0.5-4c0.1-2.2-0.4-4.4-1.4-6.3c-0.8-1.5-2-2.9-3.5-3.9c-1.4-1-3-1.6-4.7-2c-1.6-0.4-3.3-0.6-5-0.6h-18l-5.7,9.3
	h24.4c1.3-0.1,2.5,0.3,3.5,1c0.9,0.8,1.4,1.9,1.3,3.1c0,1.1-0.5,2.2-1.4,2.9c-1,0.7-2.2,1.1-3.4,1.1h-24.4v18.3h8.7v-9.5h13.4
	l6.3,9.5h11.6l-5.2-7C1058,408.4,1057.2,407.4,1056.6,406.7z"/>
<path d="M802.6,395.1h-15.3c-0.8,0.1-1.6-0.1-2.2-0.6c-0.5-0.5-0.8-1.2-0.7-1.9c-0.1-0.7,0.2-1.4,0.7-1.9c0.7-0.4,1.5-0.6,2.2-0.5
	h19.5l5.6-9.3H788c-1.9,0-3.7,0.2-5.5,0.8c-1.4,0.5-2.7,1.2-3.7,2.2c-1,1-1.7,2.2-2.1,3.5c-0.5,1.5-0.7,3-0.7,4.6
	c0,1.4,0.2,2.8,0.6,4.2c0.4,1.2,1,2.3,1.9,3.2c0.9,0.9,2,1.6,3.3,2.1c1.5,0.5,3.1,0.8,4.7,0.8h15.3c0.8-0.1,1.6,0.1,2.3,0.6
	c0.5,0.5,0.8,1.2,0.7,1.9c0.1,0.7-0.2,1.5-0.7,2c-0.7,0.5-1.5,0.7-2.3,0.6h-21.3l-5.6,9.2h26.2c1.9,0,3.7-0.2,5.5-0.8
	c1.4-0.5,2.7-1.3,3.8-2.3c1-1,1.7-2.3,2.1-3.7c0.5-1.6,0.7-3.3,0.7-4.9c0-3.3-0.9-5.7-2.7-7.4C808.7,395.9,806,395.1,802.6,395.1z"
	/>
<path d="M853.2,401c0,1.1-0.1,2.2-0.4,3.2c-0.3,0.9-0.8,1.6-1.4,2.2c-0.8,0.6-1.7,1-2.7,1.2c-1.4,0.3-2.8,0.4-4.2,0.4
	c-1.8,0-3.7-0.1-5.5-0.3c-1.2-0.1-2.3-0.5-3.3-1.2c-0.8-0.5-1.3-1.3-1.6-2.2c-0.3-1.1-0.4-2.2-0.4-3.3v-20.2H825V401
	c0,2.4,0.3,4.8,1.1,7.1c0.7,2,1.9,3.7,3.5,5.1c1.8,1.4,3.8,2.5,6,3c2.8,0.7,5.8,1.1,8.7,1c11.7,0,17.5-5.4,17.5-16.2v-20.2h-8.7
	L853.2,401z"/>
<path d="M1255.3,397.5c-1.8-1.6-4.4-2.4-7.9-2.4h-15.3c-0.8,0.1-1.6-0.1-2.3-0.6c-0.5-0.5-0.8-1.2-0.7-1.9c-0.1-0.7,0.2-1.4,0.7-1.9
	c0.7-0.4,1.5-0.6,2.3-0.5h19.5l5.6-9.3h-24.4c-1.9,0-3.7,0.2-5.5,0.8c-1.4,0.5-2.7,1.2-3.7,2.2c-1,1-1.7,2.2-2.1,3.5
	c-0.5,1.5-0.7,3-0.7,4.6c0,1.4,0.2,2.8,0.6,4.2c0.4,1.2,1,2.3,1.9,3.2c0.9,0.9,2,1.6,3.3,2.1c1.5,0.5,3.1,0.8,4.7,0.8h15.3
	c0.8-0.1,1.6,0.1,2.3,0.6c0.5,0.5,0.8,1.2,0.7,1.9c0.1,0.7-0.2,1.5-0.7,2c-0.7,0.5-1.5,0.7-2.3,0.6h-21.3l-5.6,9.2h26.2
	c1.9,0,3.7-0.2,5.5-0.8c1.4-0.5,2.7-1.3,3.8-2.3c1-1,1.7-2.3,2.1-3.7c0.5-1.6,0.7-3.3,0.7-4.9C1258,401.6,1257.1,399.2,1255.3,397.5
	z"/>
<path d="M980.5,386.9c0-1-0.1-2.1-0.4-3c-0.2-0.8-0.6-1.5-1.1-2.1c-0.4-0.5-0.9-0.9-1.5-1.2c-0.6-0.2-1.2-0.4-1.8-0.4
	c-0.6,0-1.3,0.2-1.8,0.4c-0.8,0.3-1.5,0.9-2.1,1.5l-20.3,21c-1.2,1.2-1.8,2.7-1.8,4.4c0,0.6,0.1,1.2,0.3,1.8
	c0.2,0.6,0.5,1.1,0.8,1.5c0.4,0.4,0.8,0.8,1.3,1.1c0.5,0.3,1.1,0.4,1.7,0.4h18.4v4.3h8.3v-4.3h2.9l5.1-8.8h-8L980.5,386.9z
	 M972.2,395.5c0,0.7,0,1.6,0,2.7v5.4h-5c-1,0-1.9,0-2.7,0c-0.8,0-1.5,0.1-2.1,0.2c0.5-0.4,1.1-1,1.7-1.5c0.6-0.6,1.3-1.3,2.1-2.1
	l3.1-3.2c1.4-1.4,2.4-2.6,3.1-3.4C972.3,394.2,972.2,394.8,972.2,395.5L972.2,395.5z"/>
<path d="M907.6,406.7c-0.6-0.7-1.1-1.3-1.6-1.8c1.1-0.3,2.2-0.8,3.1-1.5c0.9-0.7,1.7-1.6,2.3-2.5c0.6-1,1.1-2.2,1.4-3.4
	c0.3-1.3,0.5-2.6,0.5-4c0.1-2.2-0.4-4.4-1.4-6.3c-0.8-1.5-2-2.9-3.5-3.9c-1.4-1-3-1.6-4.7-2c-1.6-0.4-3.3-0.6-4.9-0.6h-18.1
	l-5.7,9.3h24.4c1.3-0.1,2.5,0.3,3.5,1c0.9,0.8,1.4,1.9,1.3,3.1c0,1.1-0.5,2.2-1.4,2.9c-1,0.7-2.2,1.1-3.4,1.1h-24.4v18.3h8.7v-9.5
	h13.4l6.3,9.5H915l-5.2-7C908.9,408.4,908.1,407.4,907.6,406.7z"/>
</svg>
