<svg id="Layer_1" data-name="Layer 1" xmlns="http://www.w3.org/2000/svg" viewBox="0 0 1306 452"><title>logo</title><path d="M1129.84,309.9q6.62,3.77,17.31,5.05a266.18,266.18,0,0,0,52.24,0q10.67-1.28,17.31-5.05a22.09,22.09,0,0,0,9.56-10.38q3-6.63,3-17.31t-3-17.32a21.67,21.67,0,0,0-9.6-10.29q-6.64-3.65-17.31-4.95a266.18,266.18,0,0,0-52.24,0q-10.67,1.29-17.31,4.95a21.67,21.67,0,0,0-9.6,10.29q-3,6.64-3,17.32t3,17.31A22.09,22.09,0,0,0,1129.84,309.9Z" style="fill:none"/><path d="M47.83,329.2a78.86,78.86,0,0,0,25.23,14.14,95.52,95.52,0,0,0,31.88,5.15h66.48l26.32-34H104.92a50.5,50.5,0,0,1-15.46-2.27,38.64,38.64,0,0,1-12.37-6.43,29.73,29.73,0,0,1-8-36,31.23,31.23,0,0,1,8.11-10.19,38,38,0,0,1,12.27-6.63,48.51,48.51,0,0,1,15.46-2.38H171.4l26.32-34.43H104.92A105.07,105.07,0,0,0,73,220.75,76,76,0,0,0,47.81,234a62.58,62.58,0,0,0-16.62,20.58,57.82,57.82,0,0,0-6,26.47,60.21,60.21,0,0,0,6,26.81A65.52,65.52,0,0,0,47.83,329.2Z"/><path d="M231.86,334.24q24,16.42,72.72,16.42,48.48,0,72.62-16.42t24.15-52q0-35.42-24.24-51.85t-72.52-16.42q-48.49,0-72.63,16.42T207.81,282.2Q207.81,317.82,231.86,334.24Zm19.68-69.36a21.7,21.7,0,0,1,9.59-10.29q6.64-3.65,17.32-4.95a266.18,266.18,0,0,1,52.24,0q10.68,1.29,17.31,4.95a21.65,21.65,0,0,1,9.59,10.29q3,6.64,3,17.32t-3,17.31A22.07,22.07,0,0,1,348,309.9q-6.64,3.77-17.31,5.05a266.18,266.18,0,0,1-52.24,0q-10.69-1.28-17.32-5.05a22.12,22.12,0,0,1-9.6-10.38q-3-6.63-3-17.31T251.54,264.88Z" style="fill:#fe9104"/><path d="M440.62,329.2a78.86,78.86,0,0,0,25.23,14.14,95.52,95.52,0,0,0,31.88,5.15h66.48l26.32-34H497.71a50.5,50.5,0,0,1-15.46-2.27,38.64,38.64,0,0,1-12.37-6.43,29.73,29.73,0,0,1-8-36A31.23,31.23,0,0,1,470,259.54a38,38,0,0,1,12.27-6.63,48.51,48.51,0,0,1,15.46-2.38H564.2l26.32-34.43H497.71a105.07,105.07,0,0,0-31.88,4.65A76,76,0,0,0,440.6,234,62.58,62.58,0,0,0,424,254.59a57.82,57.82,0,0,0-6,26.47,60.21,60.21,0,0,0,6,26.81A65.52,65.52,0,0,0,440.62,329.2Z"/><path d="M624.65,334.24q24,16.42,72.72,16.42,48.48,0,72.62-16.42t24.15-52q0-35.42-24.24-51.85t-72.52-16.42q-48.49,0-72.63,16.42T600.61,282.2Q600.61,317.82,624.65,334.24Zm19.69-69.36a21.7,21.7,0,0,1,9.59-10.29q6.64-3.65,17.32-4.95a266.18,266.18,0,0,1,52.24,0q10.68,1.29,17.31,4.95a21.72,21.72,0,0,1,9.6,10.29q3,6.64,3,17.32t-3,17.31a22.14,22.14,0,0,1-9.6,10.38q-6.64,3.77-17.31,5.05a266.18,266.18,0,0,1-52.24,0q-10.69-1.28-17.32-5.05a22.12,22.12,0,0,1-9.59-10.38q-3-6.63-3-17.31T644.34,264.88Z"/><path d="M909.21,329.2a78.81,78.81,0,0,0,25.22,14.14,95.52,95.52,0,0,0,31.88,5.15h90.81V265.77H972.43l-24.54,29.49h68.47v19.19H966.29a51.2,51.2,0,0,1-15.63-2.27,38.53,38.53,0,0,1-12.37-6.43,29.59,29.59,0,0,1-8-35.92,32,32,0,0,1,8.21-10.18,37.84,37.84,0,0,1,12.38-6.76,48.45,48.45,0,0,1,15.46-2.38h68.27l26.49-34.4H966.29a105.07,105.07,0,0,0-31.88,4.65A76,76,0,0,0,909.19,234a62.61,62.61,0,0,0-16.63,20.58,57.82,57.82,0,0,0-6,26.42,60.21,60.21,0,0,0,6,26.81A65.55,65.55,0,0,0,909.21,329.2Z"/><path d="M1100.55,334.24q24,16.42,72.72,16.42,48.49,0,72.63-16.42t24.15-52q0-35.42-24.25-51.85t-72.52-16.42q-48.49,0-72.62,16.42t-24.15,51.85Q1076.54,317.82,1100.55,334.24Zm19.69-69.36a21.67,21.67,0,0,1,9.6-10.29q6.62-3.65,17.31-4.95a266.18,266.18,0,0,1,52.24,0q10.67,1.29,17.31,4.95a21.67,21.67,0,0,1,9.6,10.29q3,6.64,3,17.32t-3,17.31a22.09,22.09,0,0,1-9.6,10.38q-6.64,3.77-17.31,5.05a266.18,266.18,0,0,1-52.24,0q-10.67-1.28-17.31-5.05a22.09,22.09,0,0,1-9.6-10.38q-3-6.63-3-17.31T1120.24,264.88Z" style="fill:#fe9104"/><polygon points="30.38 389.11 15.82 410.78 47.63 410.78 60.84 389.11 30.38 389.11" style="fill:#fe9104"/><polygon points="281.18 402.99 302.5 368.47 235.15 368.47 226.01 385.73 190.47 385.73 199.27 368.47 141.4 368.47 127.18 391.48 111.28 391.48 120.75 376.93 76.75 376.93 60.84 402.99 87.24 403.67 77.43 421.27 123.12 421.27 127.52 410.78 162.38 410.78 153.24 424.99 212.48 424.99 225.34 402.99 281.18 402.99" style="fill:#fe9104"/><path d="M473.42,118.41C726.14,232.48,1041.54,4,1291,202.93c-274.76-127.61-631.09,86.63-817.58-84.53"/><path d="M27.26,103.25a276.78,276.78,0,0,0,167.13,39.4,1123,1123,0,0,0,131-22.72c203.84-47.52,303-89.84,520.81-10.07C668.83-20.4,505.49,29.41,317.58,80.88Q164.24,122.82,27.26,103.25" style="fill:#fe9104"/><polygon points="487.37 370.32 487.62 370.32 487.62 370.25 487.37 370.32"/><polygon points="401.63 370.32 401.88 370.32 401.88 370.25 401.63 370.32"/><path d="M671.12,392.57a7.66,7.66,0,0,1,2.6-1.79,8.4,8.4,0,0,1,3.28-.64h14.08l5.58-9.31H677a17.77,17.77,0,0,0-6.76,1.27,15.25,15.25,0,0,0-5.36,3.58,16.85,16.85,0,0,0-3.53,5.55,19.32,19.32,0,0,0-1.28,7.14,20.18,20.18,0,0,0,1.28,7.25,17.88,17.88,0,0,0,3.53,5.8A16.3,16.3,0,0,0,677,416.63h14.08l5.58-9.2H677a8.75,8.75,0,0,1-3.28-.62,7.66,7.66,0,0,1-4.34-4.43,9.66,9.66,0,0,1-.62-3.51,9.52,9.52,0,0,1,.64-3.54A8.52,8.52,0,0,1,671.12,392.57Z"/><path d="M519.56,392.6a7.73,7.73,0,0,1,2.63-1.82,8.32,8.32,0,0,1,3.27-.64h14.49l5.62-9.31H525.46a17.81,17.81,0,0,0-6.76,1.27,15.22,15.22,0,0,0-5.35,3.58,16.69,16.69,0,0,0-3.53,5.55,19.16,19.16,0,0,0-1.28,7.14,20,20,0,0,0,1.28,7.25,17.72,17.72,0,0,0,3.53,5.8,16.26,16.26,0,0,0,12.11,5.22h19.32V394.28h-18l-5.22,8H536v5.19H525.41a8.76,8.76,0,0,1-3.31-.62,7.64,7.64,0,0,1-4.35-4.43,9.66,9.66,0,0,1-.61-3.51,9.28,9.28,0,0,1,.63-3.51A8.55,8.55,0,0,1,519.56,392.6Z"/><path d="M582.89,381.4a5.32,5.32,0,0,0-6.7.08,11.36,11.36,0,0,0-2.22,2.78l-18,32.35h10.29l13.19-23.75,5,9.47c.47.85,1,1.77,1.49,2.75s1,1.79,1.36,2.43a21.15,21.15,0,0,0-2.37-.11h-9.66l-5.26,9.2H602.7l-17.55-32.35A10.12,10.12,0,0,0,582.89,381.4Z"/><polygon points="389.37 373.94 389.37 378.38 401.88 376.29 401.88 370.32 401.63 370.32 389.37 373.94"/><polygon points="432.37 380.83 423.68 380.83 423.68 416.61 448.49 416.61 454.12 407.42 432.37 407.42 432.37 380.83"/><polygon points="474.14 402.55 491.4 402.55 496.4 394.42 474.14 394.42 474.14 390.14 492.32 390.14 497.95 380.83 465.41 380.83 465.41 416.61 492.45 416.61 498.03 407.42 474.14 407.42 474.14 402.55"/><polygon points="334.24 380.83 325.55 380.83 325.55 416.61 350.36 416.61 355.99 407.42 334.24 407.42 334.24 380.83"/><polygon points="388.4 402.55 405.66 402.55 410.66 394.42 388.4 394.42 388.4 390.14 406.59 390.14 412.21 380.83 379.67 380.83 379.67 416.61 406.71 416.61 412.3 407.42 388.4 407.42 388.4 402.55"/><polygon points="362.71 395.17 365.36 395.17 367.92 380.83 360.15 380.83 362.71 395.17"/><path d="M639.5,401.81l-17.21-19.68a5.6,5.6,0,0,0-1.86-1.57,4.16,4.16,0,0,0-1.62-.35,4.54,4.54,0,0,0-1.78.37,4,4,0,0,0-1.52,1.18,6.4,6.4,0,0,0-1.05,2.09,10.52,10.52,0,0,0-.4,3v29.69h7.89v-21l17.21,19.68a5.41,5.41,0,0,0,1.83,1.58,4.22,4.22,0,0,0,1.66.34,4.71,4.71,0,0,0,1.81-.37,3.86,3.86,0,0,0,1.54-1.21,6.6,6.6,0,0,0,1-2.11,10.2,10.2,0,0,0,.41-3.05V380.79H639.5Z"/><path d="M1109.63,384.69q-5.15-4.43-15.39-4.43t-15.41,4.43q-5.13,4.43-5.12,14t5.1,14.07q5.1,4.43,15.46,4.43t15.46-4.43q5.13-4.43,5.12-14.07T1109.63,384.69Zm-4.13,18.69a5.67,5.67,0,0,1-2,2.8,8.39,8.39,0,0,1-3.67,1.36,44.38,44.38,0,0,1-11.09,0,8.39,8.39,0,0,1-3.67-1.36,5.67,5.67,0,0,1-2-2.8,17.75,17.75,0,0,1,0-9.36,5.49,5.49,0,0,1,2-2.78,8.63,8.63,0,0,1,3.67-1.33,44.38,44.38,0,0,1,11.09,0,8.63,8.63,0,0,1,3.67,1.33,5.49,5.49,0,0,1,2,2.78A17.75,17.75,0,0,1,1105.5,403.38Z"/><polygon points="475.11 373.94 475.11 378.38 487.62 376.29 487.62 370.32 487.37 370.32 475.11 373.94"/><polygon points="716.84 402.55 734.1 402.55 739.1 394.42 716.84 394.42 716.84 390.14 735.02 390.14 740.65 380.83 708.11 380.83 708.11 416.61 735.15 416.61 740.73 407.42 716.84 407.42 716.84 402.55"/><path d="M1155.34,401a10.39,10.39,0,0,1-.43,3.21,4.83,4.83,0,0,1-1.45,2.19,6.19,6.19,0,0,1-2.69,1.24,19.63,19.63,0,0,1-4.2.38,34.62,34.62,0,0,1-5.46-.35,7.8,7.8,0,0,1-3.26-1.18,4.13,4.13,0,0,1-1.57-2.17,11.14,11.14,0,0,1-.43-3.31V380.83h-8.69V401a20.69,20.69,0,0,0,1.11,7.09,12.06,12.06,0,0,0,3.49,5.05,15.55,15.55,0,0,0,6,3,32.91,32.91,0,0,0,8.69,1q17.5,0,17.5-16.2V380.83h-8.69Z"/><polygon points="1186.12 402.55 1203.38 402.55 1208.37 394.42 1186.12 394.42 1186.12 390.14 1204.3 390.14 1209.93 380.83 1177.38 380.83 1177.38 416.61 1204.42 416.61 1210.01 407.42 1186.12 407.42 1186.12 402.55"/><path d="M1056.58,406.71c-.59-.71-1.12-1.29-1.59-1.76a8.35,8.35,0,0,0,3.08-1.47,9.72,9.72,0,0,0,2.32-2.54,12.47,12.47,0,0,0,1.45-3.37,15.46,15.46,0,0,0,.5-4,13,13,0,0,0-1.37-6.32,11.32,11.32,0,0,0-3.46-3.86,13.07,13.07,0,0,0-4.67-2,23,23,0,0,0-5-.57h-18l-5.68,9.31h24.44a5.37,5.37,0,0,1,3.53,1,3.81,3.81,0,0,1,1.27,3.12,3.51,3.51,0,0,1-1.39,2.9,5.37,5.37,0,0,1-3.4,1.06h-24.44v18.3h8.69v-9.47h13.35l6.26,9.47h11.59l-5.17-7C1058,408.41,1057.22,407.44,1056.58,406.71Z"/><path d="M802.63,395.11H787.34a3.64,3.64,0,0,1-2.24-.56,2.29,2.29,0,0,1-.73-1.93,2.22,2.22,0,0,1,.73-1.93,3.8,3.8,0,0,1,2.24-.53h19.49l5.58-9.31H788a16.42,16.42,0,0,0-5.48.81,9.66,9.66,0,0,0-3.74,2.24,8.92,8.92,0,0,0-2.14,3.51A14.18,14.18,0,0,0,776,392a13.08,13.08,0,0,0,.64,4.19,8.11,8.11,0,0,0,1.93,3.24,8.84,8.84,0,0,0,3.27,2.09,13.15,13.15,0,0,0,4.69.75h15.28a3.52,3.52,0,0,1,2.27.59,2.42,2.42,0,0,1,.71,1.93,2.54,2.54,0,0,1-.71,2,3.45,3.45,0,0,1-2.27.62H780.53l-5.58,9.2h26.16a16.71,16.71,0,0,0,5.48-.8,9.66,9.66,0,0,0,3.76-2.3,8.85,8.85,0,0,0,2.14-3.69,17,17,0,0,0,.67-4.93c0-3.27-.89-5.73-2.69-7.35S806,395.11,802.63,395.11Z"/><path d="M853.19,401a10.37,10.37,0,0,1-.44,3.21,4.83,4.83,0,0,1-1.45,2.19,6.19,6.19,0,0,1-2.69,1.24,19.63,19.63,0,0,1-4.2.38,34.62,34.62,0,0,1-5.46-.35,7.8,7.8,0,0,1-3.26-1.18,4.13,4.13,0,0,1-1.57-2.17,11.17,11.17,0,0,1-.42-3.31V380.83H825V401a20.69,20.69,0,0,0,1.11,7.09,12.06,12.06,0,0,0,3.49,5.05,15.55,15.55,0,0,0,6,3,32.91,32.91,0,0,0,8.69,1q17.5,0,17.5-16.2V380.83h-8.69Z"/><path d="M1255.26,397.54q-2.68-2.43-7.85-2.43h-15.28a3.7,3.7,0,0,1-2.25-.56,2.32,2.32,0,0,1-.73-1.93,2.25,2.25,0,0,1,.73-1.93,3.86,3.86,0,0,1,2.25-.53h19.49l5.58-9.31H1232.8a16.42,16.42,0,0,0-5.49.81,9.66,9.66,0,0,0-3.73,2.24,8.92,8.92,0,0,0-2.14,3.51,14.18,14.18,0,0,0-.7,4.57,13.35,13.35,0,0,0,.63,4.19,8.35,8.35,0,0,0,1.93,3.24,9,9,0,0,0,3.27,2.09,13.21,13.21,0,0,0,4.7.75h15.28a3.52,3.52,0,0,1,2.27.59,2.42,2.42,0,0,1,.71,1.93,2.54,2.54,0,0,1-.71,2,3.45,3.45,0,0,1-2.27.62h-21.25l-5.58,9.2h26.16a16.71,16.71,0,0,0,5.48-.8,9.66,9.66,0,0,0,3.76-2.3,9.06,9.06,0,0,0,2.14-3.69,17,17,0,0,0,.67-4.93Q1258,400,1255.26,397.54Z"/><path d="M980.46,386.93a10.52,10.52,0,0,0-.4-3A6.39,6.39,0,0,0,979,381.8a4,4,0,0,0-1.54-1.18,4.67,4.67,0,0,0-1.8-.37,4.91,4.91,0,0,0-1.83.43,6.19,6.19,0,0,0-2.13,1.5l-20.29,21a6.2,6.2,0,0,0-1.8,4.39,5.63,5.63,0,0,0,.29,1.82,4.83,4.83,0,0,0,.84,1.53,4.17,4.17,0,0,0,1.32,1.06,3.72,3.72,0,0,0,1.74.41h18.35v4.28h8.32v-4.28h2.9l5.08-8.77h-8Zm-8.27,8.62v8h-7.72a16.92,16.92,0,0,0-2.06.16c.53-.43,1.09-1,1.7-1.52s1.29-1.29,2.08-2.12l3.1-3.16c1.37-1.42,2.4-2.57,3.07-3.42a12.52,12.52,0,0,0-.15,2Z"/><path d="M907.56,406.71c-.59-.71-1.12-1.29-1.59-1.76a8.46,8.46,0,0,0,3.09-1.47,9.85,9.85,0,0,0,2.31-2.54,12.47,12.47,0,0,0,1.45-3.37,15.46,15.46,0,0,0,.5-4,13,13,0,0,0-1.37-6.32,11.32,11.32,0,0,0-3.46-3.86,13.07,13.07,0,0,0-4.67-2,22.94,22.94,0,0,0-4.95-.57H880.82l-5.67,9.31h24.43a5.37,5.37,0,0,1,3.53,1,3.81,3.81,0,0,1,1.27,3.12,3.53,3.53,0,0,1-1.38,2.9,5.42,5.42,0,0,1-3.41,1.06H875.15v18.3h8.69v-9.47H897.2l6.25,9.47H915l-5.16-7C908.93,408.41,908.15,407.44,907.56,406.71Z"/></svg>