<svg id="Layer_1" data-name="Layer 1" xmlns="http://www.w3.org/2000/svg" viewBox="0 0 1800 1700"><defs><style>.cls-1{fill:#fff;}.cls-2{fill:none;}.cls-3,.cls-5{fill:#fe9104;}.cls-4,.cls-5{fill-rule:evenodd;}</style></defs><title>2000Artboard 2</title><rect class="cls-1" width="1800" height="1700"/><path class="cls-2" d="M1393.18,936.85q6.85,3.9,17.92,5.23a275.54,275.54,0,0,0,54.08,0q11.05-1.33,17.92-5.23A22.87,22.87,0,0,0,1493,926.1q3.07-6.86,3.07-17.92T1493,890.25a22.43,22.43,0,0,0-9.94-10.65q-6.87-3.78-17.92-5.12a275.54,275.54,0,0,0-54.08,0q-11.05,1.34-17.92,5.12a22.43,22.43,0,0,0-9.94,10.65q-3.06,6.87-3.07,17.93t3.07,17.92A22.87,22.87,0,0,0,1393.18,936.85Z"/><path d="M273.13,956.83a81.63,81.63,0,0,0,26.12,14.64,98.88,98.88,0,0,0,33,5.33h68.82l27.25-35.24H332.23a52.27,52.27,0,0,1-16-2.35,40,40,0,0,1-12.8-6.66,30.77,30.77,0,0,1-8.3-37.28,32.33,32.33,0,0,1,8.4-10.55,39.29,39.29,0,0,1,12.7-6.86,50.21,50.21,0,0,1,16-2.46h68.82l27.25-35.64H332.23a108.76,108.76,0,0,0-33,4.81,78.67,78.67,0,0,0-26.12,13.73,64.78,64.78,0,0,0-17.2,21.3A59.85,59.85,0,0,0,249.68,907a62.33,62.33,0,0,0,6.25,27.75A67.82,67.82,0,0,0,273.13,956.83Z"/><path class="cls-3" d="M463.63,962.05q24.89,17,75.28,17,50.18,0,75.17-17t25-53.87q0-36.67-25.09-53.67t-75.07-17q-50.19,0-75.18,17t-25,53.67Q438.74,945.05,463.63,962.05ZM484,890.25a22.46,22.46,0,0,1,9.93-10.65q6.87-3.78,17.93-5.12a275.54,275.54,0,0,1,54.08,0q11.06,1.34,17.92,5.12a22.41,22.41,0,0,1,9.93,10.65q3.08,6.87,3.08,17.93T593.8,926.1a22.85,22.85,0,0,1-9.93,10.75q-6.87,3.9-17.92,5.23a275.54,275.54,0,0,1-54.08,0q-11.07-1.33-17.93-5.23A22.9,22.9,0,0,1,484,926.1q-3.08-6.86-3.07-17.92T484,890.25Z"/><path d="M679.73,956.83a81.63,81.63,0,0,0,26.12,14.64,98.88,98.88,0,0,0,33,5.33h68.82l27.25-35.24H738.83a52.27,52.27,0,0,1-16-2.35,40,40,0,0,1-12.8-6.66,30.77,30.77,0,0,1-8.3-37.28,32.33,32.33,0,0,1,8.4-10.55,39.29,39.29,0,0,1,12.7-6.86,50.21,50.21,0,0,1,16-2.46h68.82l27.25-35.64H738.83a108.76,108.76,0,0,0-33,4.81,78.67,78.67,0,0,0-26.12,13.73,64.78,64.78,0,0,0-17.2,21.3A59.85,59.85,0,0,0,656.28,907a62.33,62.33,0,0,0,6.25,27.75A67.82,67.82,0,0,0,679.73,956.83Z"/><path d="M870.23,962.05q24.88,17,75.28,17,50.18,0,75.17-17t25-53.87q0-36.67-25.09-53.67t-75.07-17q-50.19,0-75.18,17t-25,53.67Q845.34,945.05,870.23,962.05Zm20.38-71.8a22.46,22.46,0,0,1,9.93-10.65q6.87-3.78,17.93-5.12a275.54,275.54,0,0,1,54.08,0q11.06,1.34,17.92,5.12a22.48,22.48,0,0,1,9.94,10.65q3.06,6.87,3.07,17.93t-3.07,17.92a22.92,22.92,0,0,1-9.94,10.75q-6.87,3.9-17.92,5.23a275.54,275.54,0,0,1-54.08,0q-11.07-1.33-17.93-5.23a22.9,22.9,0,0,1-9.93-10.75q-3.08-6.86-3.07-17.92T890.61,890.25Z"/><path d="M1164.79,956.83a81.58,81.58,0,0,0,26.11,14.64,98.88,98.88,0,0,0,33,5.33h94V891.17h-87.67l-25.4,30.53h70.88v19.86h-51.83a53,53,0,0,1-16.18-2.35,39.88,39.88,0,0,1-12.8-6.66,29.4,29.4,0,0,1-11.37-23.76,29.18,29.18,0,0,1,3.07-13.42,33.16,33.16,0,0,1,8.5-10.54,39.17,39.17,0,0,1,12.81-7,50.15,50.15,0,0,1,16-2.46h70.67L1322,839.76h-98.12a108.76,108.76,0,0,0-33,4.81,78.62,78.62,0,0,0-26.11,13.73,64.81,64.81,0,0,0-17.21,21.3,59.85,59.85,0,0,0-6.25,27.35,62.33,62.33,0,0,0,6.25,27.75A67.85,67.85,0,0,0,1164.79,956.83Z"/><path class="cls-3" d="M1362.86,962.05q24.89,17,75.28,17,50.19,0,75.18-17t25-53.87q0-36.67-25.1-53.67t-75.07-17q-50.19,0-75.17,17t-25,53.67Q1338,945.05,1362.86,962.05Zm20.38-71.8a22.43,22.43,0,0,1,9.94-10.65q6.85-3.78,17.92-5.12a275.54,275.54,0,0,1,54.08,0q11.05,1.34,17.92,5.12a22.43,22.43,0,0,1,9.94,10.65q3.07,6.87,3.07,17.93T1493,926.1a22.87,22.87,0,0,1-9.94,10.75q-6.87,3.9-17.92,5.23a275.54,275.54,0,0,1-54.08,0q-11.05-1.33-17.92-5.23a22.87,22.87,0,0,1-9.94-10.75q-3.06-6.86-3.07-17.92T1383.24,890.25Z"/><polygon class="cls-3" points="255.07 1018.85 240 1041.28 272.93 1041.28 286.6 1018.85 255.07 1018.85"/><polygon class="cls-3" points="514.69 1033.22 536.76 997.48 467.04 997.48 457.58 1015.35 420.79 1015.35 429.9 997.48 369.99 997.48 355.27 1021.3 338.81 1021.3 348.62 1006.24 303.07 1006.24 286.6 1033.22 313.93 1033.92 303.77 1052.14 351.07 1052.14 355.62 1041.28 391.71 1041.28 382.25 1055.99 443.57 1055.99 456.88 1033.22 514.69 1033.22"/><path class="cls-4" d="M713.68,738.63c261.61,118.08,588.09-118.45,846.32,87.5-284.42-132.1-653.27,89.68-846.32-87.5"/><path class="cls-5" d="M251.84,722.94a286.51,286.51,0,0,0,173,40.78A1162.52,1162.52,0,0,0,560.41,740.2c211-49.19,313.7-93,539.12-10.42-183.57-134.84-352.65-83.27-547.16-30Q393.64,743.2,251.84,722.94"/><polygon points="728.12 999.4 728.38 999.4 728.38 999.33 728.12 999.4"/><polygon points="639.37 999.4 639.63 999.4 639.63 999.33 639.37 999.4"/><path d="M918.33,1022.43a7.93,7.93,0,0,1,2.69-1.85,8.7,8.7,0,0,1,3.4-.66H939l5.78-9.64H924.42a18.4,18.4,0,0,0-7,1.31,15.79,15.79,0,0,0-5.55,3.71,17.44,17.44,0,0,0-3.65,5.75,20,20,0,0,0-1.32,7.39,20.89,20.89,0,0,0,1.32,7.5,18.51,18.51,0,0,0,3.65,6,16.87,16.87,0,0,0,12.55,5.4H939l5.78-9.52H924.42a9.06,9.06,0,0,1-3.4-.64,7.93,7.93,0,0,1-4.49-4.59,10,10,0,0,1-.64-3.63,9.85,9.85,0,0,1,.66-3.66A8.82,8.82,0,0,1,918.33,1022.43Z"/><path d="M761.44,1022.46a8,8,0,0,1,2.72-1.88,8.61,8.61,0,0,1,3.39-.66h15l5.82-9.64H767.55a18.44,18.44,0,0,0-7,1.31,15.75,15.75,0,0,0-5.54,3.71,17.28,17.28,0,0,0-3.65,5.75,19.83,19.83,0,0,0-1.33,7.39,20.68,20.68,0,0,0,1.33,7.5,18.34,18.34,0,0,0,3.65,6,16.83,16.83,0,0,0,12.54,5.4h20v-23.14H768.9l-5.4,8.25h15v5.37h-11a9.07,9.07,0,0,1-3.43-.64,7.91,7.91,0,0,1-4.5-4.59,10,10,0,0,1-.63-3.63,9.61,9.61,0,0,1,.65-3.63A8.85,8.85,0,0,1,761.44,1022.46Z"/><path d="M827,1010.87a5.51,5.51,0,0,0-6.94.08,11.76,11.76,0,0,0-2.3,2.88l-18.65,33.49h10.65l13.65-24.58,5.22,9.8c.49.88,1,1.83,1.54,2.85s1,1.85,1.41,2.52a21.89,21.89,0,0,0-2.45-.11h-10l-5.44,9.52h33.82l-18.17-33.49A10.48,10.48,0,0,0,827,1010.87Z"/><polygon points="626.68 1003.15 626.68 1007.74 639.63 1005.58 639.63 999.4 639.37 999.4 626.68 1003.15"/><polygon points="671.19 1010.28 662.19 1010.28 662.19 1047.32 687.88 1047.32 693.7 1037.8 671.19 1037.8 671.19 1010.28"/><polygon points="714.43 1032.76 732.3 1032.76 737.47 1024.35 714.43 1024.35 714.43 1019.92 733.25 1019.92 739.08 1010.28 705.39 1010.28 705.39 1047.32 733.38 1047.32 739.16 1037.8 714.43 1037.8 714.43 1032.76"/><polygon points="569.61 1010.28 560.61 1010.28 560.61 1047.32 586.3 1047.32 592.12 1037.8 569.61 1037.8 569.61 1010.28"/><polygon points="625.68 1032.76 643.54 1032.76 648.72 1024.35 625.68 1024.35 625.68 1019.92 644.5 1019.92 650.32 1010.28 616.64 1010.28 616.64 1047.32 644.63 1047.32 650.41 1037.8 625.68 1037.8 625.68 1032.76"/><polygon points="599.08 1025.12 601.82 1025.12 604.47 1010.28 596.43 1010.28 599.08 1025.12"/><path d="M885.6,1032l-17.82-20.37a5.8,5.8,0,0,0-1.93-1.63,4.31,4.31,0,0,0-1.68-.36,4.7,4.7,0,0,0-1.84.38,4.16,4.16,0,0,0-1.57,1.22,6.62,6.62,0,0,0-1.09,2.16,10.89,10.89,0,0,0-.41,3.15v30.73h8.17v-21.76l17.82,20.37a5.6,5.6,0,0,0,1.89,1.64,4.37,4.37,0,0,0,1.72.35,4.88,4.88,0,0,0,1.87-.38,4,4,0,0,0,1.59-1.25,6.83,6.83,0,0,0,1.08-2.18,10.56,10.56,0,0,0,.42-3.16v-30.67H885.6Z"/><path d="M1372.26,1014.27q-5.33-4.59-15.93-4.59t-15.95,4.59q-5.31,4.59-5.3,14.5t5.28,14.56q5.28,4.59,16,4.59t16-4.59q5.31-4.59,5.3-14.56T1372.26,1014.27Zm-4.28,19.35a5.87,5.87,0,0,1-2.11,2.9,8.68,8.68,0,0,1-3.8,1.41,45.94,45.94,0,0,1-11.48,0,8.68,8.68,0,0,1-3.8-1.41,5.87,5.87,0,0,1-2.11-2.9,18.38,18.38,0,0,1,0-9.69,5.68,5.68,0,0,1,2.11-2.88,8.93,8.93,0,0,1,3.8-1.38,45.94,45.94,0,0,1,11.48,0,8.93,8.93,0,0,1,3.8,1.38,5.68,5.68,0,0,1,2.11,2.88,18.38,18.38,0,0,1,0,9.69Z"/><polygon points="715.43 1003.15 715.43 1007.74 728.38 1005.58 728.38 999.4 728.12 999.4 715.43 1003.15"/><polygon points="965.66 1032.76 983.53 1032.76 988.7 1024.35 965.66 1024.35 965.66 1019.92 984.48 1019.92 990.31 1010.28 956.62 1010.28 956.62 1047.32 984.61 1047.32 990.39 1037.8 965.66 1037.8 965.66 1032.76"/><path d="M1419.57,1031.15a10.75,10.75,0,0,1-.45,3.32,5,5,0,0,1-1.5,2.27,6.41,6.41,0,0,1-2.78,1.28,20.33,20.33,0,0,1-4.35.39,35.83,35.83,0,0,1-5.65-.36,8.07,8.07,0,0,1-3.37-1.22,4.28,4.28,0,0,1-1.63-2.25,11.53,11.53,0,0,1-.44-3.43v-20.87h-9v20.87a21.42,21.42,0,0,0,1.15,7.34,12.48,12.48,0,0,0,3.61,5.23,16.1,16.1,0,0,0,6.24,3.15,34.07,34.07,0,0,0,9,1.05q18.12,0,18.12-16.77v-20.87h-9Z"/><polygon points="1451.43 1032.76 1469.3 1032.76 1474.47 1024.35 1451.43 1024.35 1451.43 1019.92 1470.25 1019.92 1476.08 1010.28 1442.39 1010.28 1442.39 1047.32 1470.38 1047.32 1476.16 1037.8 1451.43 1037.8 1451.43 1032.76"/><path d="M1317.34,1037.07c-.61-.73-1.16-1.34-1.65-1.82a8.64,8.64,0,0,0,3.19-1.52,10.06,10.06,0,0,0,2.4-2.63,12.91,12.91,0,0,0,1.5-3.49,16,16,0,0,0,.52-4.09,13.42,13.42,0,0,0-1.42-6.54,11.72,11.72,0,0,0-3.58-4,13.53,13.53,0,0,0-4.83-2.07,23.77,23.77,0,0,0-5.13-.59h-18.68l-5.88,9.64h25.3a5.56,5.56,0,0,1,3.65,1.08,3.94,3.94,0,0,1,1.31,3.23,3.63,3.63,0,0,1-1.44,3,5.56,5.56,0,0,1-3.52,1.1h-25.3v18.94h9v-9.8h13.82l6.48,9.8h12l-5.35-7.2C1318.76,1038.83,1318,1037.82,1317.34,1037.07Z"/><path d="M1054.46,1025.06h-15.82a3.77,3.77,0,0,1-2.32-.58,2.37,2.37,0,0,1-.76-2,2.3,2.3,0,0,1,.76-2,3.93,3.93,0,0,1,2.32-.55h20.17l5.78-9.64h-25.25a17,17,0,0,0-5.67.84,10,10,0,0,0-3.87,2.32,9.23,9.23,0,0,0-2.22,3.63,14.68,14.68,0,0,0-.72,4.73,13.54,13.54,0,0,0,.66,4.34,8.4,8.4,0,0,0,2,3.35,9.15,9.15,0,0,0,3.39,2.16,13.61,13.61,0,0,0,4.86.78h15.82a3.64,3.64,0,0,1,2.35.61,2.5,2.5,0,0,1,.74,2,2.63,2.63,0,0,1-.74,2.08,3.57,3.57,0,0,1-2.35.64h-22l-5.78,9.52h27.08a17.3,17.3,0,0,0,5.67-.83,10,10,0,0,0,3.89-2.38,9.16,9.16,0,0,0,2.22-3.82,17.58,17.58,0,0,0,.69-5.1c0-3.39-.92-5.93-2.78-7.61S1058,1025.06,1054.46,1025.06Z"/><path d="M1106.8,1031.15a10.73,10.73,0,0,1-.46,3.32,5,5,0,0,1-1.5,2.27,6.41,6.41,0,0,1-2.78,1.28,20.33,20.33,0,0,1-4.35.39,35.83,35.83,0,0,1-5.65-.36,8.07,8.07,0,0,1-3.37-1.22,4.28,4.28,0,0,1-1.63-2.25,11.56,11.56,0,0,1-.43-3.43v-20.87h-9v20.87a21.42,21.42,0,0,0,1.15,7.34,12.48,12.48,0,0,0,3.61,5.23,16.1,16.1,0,0,0,6.24,3.15,34.07,34.07,0,0,0,9,1.05q18.12,0,18.12-16.77v-20.87h-9Z"/><path d="M1523,1027.58q-2.77-2.52-8.13-2.52h-15.82a3.83,3.83,0,0,1-2.33-.58,2.4,2.4,0,0,1-.76-2,2.33,2.33,0,0,1,.76-2,4,4,0,0,1,2.33-.55h20.17l5.78-9.64h-25.25a17,17,0,0,0-5.68.84,10,10,0,0,0-3.86,2.32,9.23,9.23,0,0,0-2.22,3.63,14.68,14.68,0,0,0-.72,4.73,13.82,13.82,0,0,0,.65,4.34,8.64,8.64,0,0,0,2,3.35,9.31,9.31,0,0,0,3.39,2.16,13.67,13.67,0,0,0,4.87.78H1514a3.64,3.64,0,0,1,2.35.61,2.5,2.5,0,0,1,.74,2,2.63,2.63,0,0,1-.74,2.08,3.57,3.57,0,0,1-2.35.64h-22l-5.78,9.52h27.08a17.3,17.3,0,0,0,5.67-.83,10,10,0,0,0,3.89-2.38,9.38,9.38,0,0,0,2.22-3.82,17.58,17.58,0,0,0,.69-5.1Q1525.8,1030.11,1523,1027.58Z"/><path d="M1238.54,1016.59a10.89,10.89,0,0,0-.41-3.15,6.62,6.62,0,0,0-1.09-2.16,4.15,4.15,0,0,0-1.59-1.22,4.83,4.83,0,0,0-1.86-.38,5.08,5.08,0,0,0-1.89.44,6.41,6.41,0,0,0-2.2,1.55l-21,21.7a6.42,6.42,0,0,0-1.86,4.54,5.83,5.83,0,0,0,.3,1.88,5,5,0,0,0,.87,1.58,4.32,4.32,0,0,0,1.37,1.1,3.85,3.85,0,0,0,1.8.42h19v4.43h8.61v-4.43h3l5.26-9.08h-8.3Zm-8.56,8.92c0,.74,0,1.66,0,2.76v5.54h-5.17c-1.07,0-2,0-2.82,0s-1.52.1-2.13.17c.55-.44,1.13-1,1.76-1.57s1.34-1.34,2.15-2.19l3.21-3.27c1.42-1.47,2.48-2.66,3.18-3.54C1230.05,1024.09,1230,1024.77,1230,1025.51Z"/><path d="M1163.08,1037.07c-.61-.73-1.16-1.34-1.65-1.82a8.76,8.76,0,0,0,3.2-1.52,10.2,10.2,0,0,0,2.39-2.63,12.91,12.91,0,0,0,1.5-3.49,16,16,0,0,0,.52-4.09,13.42,13.42,0,0,0-1.42-6.54,11.72,11.72,0,0,0-3.58-4,13.53,13.53,0,0,0-4.83-2.07,23.75,23.75,0,0,0-5.12-.59H1135.4l-5.87,9.64h25.29a5.56,5.56,0,0,1,3.65,1.08,3.94,3.94,0,0,1,1.31,3.23,3.65,3.65,0,0,1-1.43,3,5.61,5.61,0,0,1-3.53,1.1h-25.29v18.94h9v-9.8h13.83l6.47,9.8h12l-5.34-7.2C1164.5,1038.83,1163.69,1037.82,1163.08,1037.07Z"/></svg>