<svg id="Layer_1" data-name="Layer 1" xmlns="http://www.w3.org/2000/svg" xmlns:xlink="http://www.w3.org/1999/xlink" viewBox="0 0 1196.54 373.45"><defs><linearGradient id="linear-gradient" x1="248.06" y1="174.67" x2="429.66" y2="174.67" gradientTransform="matrix(1, 0, 0, -1, 0, 454)" gradientUnits="userSpaceOnUse"><stop offset="0" stop-color="#d5b46d"/><stop offset="0" stop-color="#deb457"/><stop offset="0.23" stop-color="#fffdbd"/><stop offset="0.41" stop-color="#d6ab47"/><stop offset="0.59" stop-color="#ae8225"/><stop offset="0.77" stop-color="#cf9e25"/><stop offset="1" stop-color="#b48a2d"/></linearGradient><linearGradient id="linear-gradient-2" x1="1063.19" y1="174.67" x2="1244.79" y2="174.67" xlink:href="#linear-gradient"/><linearGradient id="linear-gradient-3" x1="67.91" y1="64.28" x2="110.15" y2="64.28" gradientTransform="matrix(1, 0, 0, -1, -67.91, 414.22)" xlink:href="#linear-gradient"/><linearGradient id="linear-gradient-4" x1="110.15" y1="67.29" x2="336.91" y2="67.29" gradientTransform="matrix(1, 0, 0, -1, -67.91, 414.22)" xlink:href="#linear-gradient"/><linearGradient id="linear-gradient-5" x1="78.64" y1="359.51" x2="847.04" y2="359.51" xlink:href="#linear-gradient"/></defs><title>logo_gold</title><path d="M1113.23,305.23q6.21,3.54,16.24,4.74a249.77,249.77,0,0,0,49,0q10-1.21,16.24-4.74a20.73,20.73,0,0,0,9-9.74q2.78-6.22,2.78-16.24T1203.71,263a20.33,20.33,0,0,0-9-9.65q-6.23-3.43-16.24-4.64a249.77,249.77,0,0,0-49,0q-10,1.21-16.24,4.64a20.33,20.33,0,0,0-9,9.65q-2.77,6.23-2.78,16.25t2.78,16.24A20.73,20.73,0,0,0,1113.23,305.23Z" transform="translate(-67.91 -39.78)" style="fill:none"/><path d="M97.94,323.34a74,74,0,0,0,23.68,13.27,89.63,89.63,0,0,0,29.91,4.83h62.38l24.7-31.94h-87.1a47.38,47.38,0,0,1-14.5-2.13,36.26,36.26,0,0,1-11.6-6,27.89,27.89,0,0,1-7.52-33.79,29.31,29.31,0,0,1,7.61-9.56A35.61,35.61,0,0,1,137,251.75a45.52,45.52,0,0,1,14.5-2.23h62.38l24.7-32.31H151.51a98.59,98.59,0,0,0-29.91,4.36A71.31,71.31,0,0,0,97.92,234a58.72,58.72,0,0,0-15.59,19.31,54.25,54.25,0,0,0-5.65,24.84,56.5,56.5,0,0,0,5.67,25.15A61.48,61.48,0,0,0,97.94,323.34Z" transform="translate(-67.91 -39.78)"/><path d="M270.62,328.07q22.56,15.41,68.24,15.41,45.49,0,68.14-15.41t22.66-48.83q0-33.24-22.74-48.65t-68-15.41q-45.5,0-68.15,15.41t-22.66,48.65Q248.06,312.66,270.62,328.07ZM289.08,263a20.36,20.36,0,0,1,9-9.65q6.23-3.43,16.25-4.64a249.77,249.77,0,0,1,49,0q10,1.21,16.24,4.64a20.31,20.31,0,0,1,9,9.65q2.79,6.23,2.79,16.25t-2.78,16.24a20.71,20.71,0,0,1-9,9.74q-6.23,3.54-16.24,4.74a249.77,249.77,0,0,1-49,0q-10-1.21-16.25-4.74a20.76,20.76,0,0,1-9-9.74q-2.79-6.22-2.78-16.24T289.08,263Z" transform="translate(-67.91 -39.78)" style="fill:url(#linear-gradient)"/><path d="M466.51,323.34a74,74,0,0,0,23.68,13.27,89.63,89.63,0,0,0,29.91,4.83h62.38l24.7-31.94h-87.1a47.38,47.38,0,0,1-14.5-2.13,36.26,36.26,0,0,1-11.6-6,27.89,27.89,0,0,1-7.52-33.79,29.31,29.31,0,0,1,7.61-9.56,35.61,35.61,0,0,1,11.51-6.22,45.52,45.52,0,0,1,14.5-2.23h62.38l24.7-32.31H520.08a98.59,98.59,0,0,0-29.91,4.36A71.31,71.31,0,0,0,466.49,234a58.72,58.72,0,0,0-15.59,19.31,54.25,54.25,0,0,0-5.65,24.84,56.5,56.5,0,0,0,5.67,25.15A61.48,61.48,0,0,0,466.51,323.34Z" transform="translate(-67.91 -39.78)"/><path d="M639.19,328.07q22.55,15.41,68.24,15.41,45.49,0,68.14-15.41t22.66-48.83q0-33.24-22.74-48.65t-68-15.41q-45.5,0-68.15,15.41t-22.66,48.65Q616.63,312.66,639.19,328.07ZM657.66,263a20.36,20.36,0,0,1,9-9.65q6.23-3.43,16.25-4.64a249.77,249.77,0,0,1,49,0q10,1.21,16.24,4.64a20.38,20.38,0,0,1,9,9.65q2.77,6.23,2.78,16.25t-2.78,16.24a20.78,20.78,0,0,1-9,9.74Q742,308.76,731.94,310a249.77,249.77,0,0,1-49,0q-10-1.21-16.25-4.74a20.76,20.76,0,0,1-9-9.74q-2.79-6.22-2.78-16.24T657.66,263Z" transform="translate(-67.91 -39.78)"/><path d="M906.2,323.34a74,74,0,0,0,23.67,13.27,89.63,89.63,0,0,0,29.91,4.83H1045V263.82H965.52l-23,27.67h64.25v18h-47a48,48,0,0,1-14.67-2.13,36.15,36.15,0,0,1-11.6-6,27.76,27.76,0,0,1-7.52-33.7,30.06,30.06,0,0,1,7.71-9.55,35.51,35.51,0,0,1,11.61-6.35,45.46,45.46,0,0,1,14.5-2.23h64.06l24.86-32.28H959.76a98.59,98.59,0,0,0-29.91,4.36A71.27,71.27,0,0,0,906.18,234a58.75,58.75,0,0,0-15.6,19.31,54.25,54.25,0,0,0-5.67,24.79,56.5,56.5,0,0,0,5.67,25.15A61.5,61.5,0,0,0,906.2,323.34Z" transform="translate(-67.91 -39.78)"/><path d="M1085.75,328.07q22.56,15.41,68.24,15.41,45.5,0,68.15-15.41t22.66-48.83q0-33.24-22.75-48.65t-68-15.41q-45.5,0-68.14,15.41t-22.66,48.65Q1063.21,312.66,1085.75,328.07ZM1104.22,263a20.33,20.33,0,0,1,9-9.65q6.21-3.43,16.24-4.64a249.77,249.77,0,0,1,49,0q10,1.21,16.24,4.64a20.33,20.33,0,0,1,9,9.65q2.78,6.23,2.78,16.25t-2.82,16.24a20.73,20.73,0,0,1-9,9.74q-6.23,3.54-16.24,4.74a249.77,249.77,0,0,1-49,0q-10-1.21-16.24-4.74a20.73,20.73,0,0,1-9-9.74q-2.77-6.22-2.78-16.24T1104.22,263Z" transform="translate(-67.91 -39.78)" style="fill:url(#linear-gradient-2)"/><polygon points="13.66 339.78 0 360.11 29.85 360.11 42.24 339.78 13.66 339.78" style="fill:url(#linear-gradient-3)"/><polygon points="249 352.81 269 320.41 205.81 320.41 197.23 336.61 163.88 336.61 172.14 320.41 117.83 320.41 104.49 342 89.57 342 98.46 328.35 57.17 328.35 42.24 352.81 67.02 353.44 57.81 369.96 100.68 369.96 104.81 360.11 137.52 360.11 128.94 373.45 184.53 373.45 196.59 352.81 249 352.81" style="fill:url(#linear-gradient-4)"/><path d="M497.28,125.55c237.14,107,533.09-107.37,767.16,79.32-257.82-119.74-592.17,81.29-767.16-79.32" transform="translate(-67.91 -39.78)"/><path d="M78.64,111.32a259.71,259.71,0,0,0,156.82,37A1053.78,1053.78,0,0,0,358.35,127c191.27-44.59,284.36-84.3,488.7-9.45C680.64-4.7,527.38,42,351.06,90.33q-143.88,39.36-272.42,21" transform="translate(-67.91 -39.78)" style="fill:url(#linear-gradient-5)"/><polygon points="442.47 322.15 442.7 322.15 442.7 322.09 442.47 322.15"/><polygon points="362.02 322.15 362.25 322.15 362.25 322.09 362.02 322.15"/><path d="M682.79,382.8a7.19,7.19,0,0,1,2.44-1.68,7.89,7.89,0,0,1,3.08-.6h13.22l5.24-8.74H688.31A16.68,16.68,0,0,0,682,373a14.31,14.31,0,0,0-5,3.36,15.81,15.81,0,0,0-3.31,5.21,18.13,18.13,0,0,0-1.2,6.7,18.94,18.94,0,0,0,1.2,6.8,16.78,16.78,0,0,0,3.31,5.44,15.29,15.29,0,0,0,11.38,4.89h13.22l5.24-8.63H688.31a8.21,8.21,0,0,1-3.08-.58,7.19,7.19,0,0,1-4.07-4.16,9.07,9.07,0,0,1-.58-3.29,8.93,8.93,0,0,1,.6-3.32A8,8,0,0,1,682.79,382.8Z" transform="translate(-67.91 -39.78)"/><path d="M540.58,382.83a7.25,7.25,0,0,1,2.47-1.7,7.8,7.8,0,0,1,3.07-.6h13.6l5.28-8.74H546.11a16.71,16.71,0,0,0-6.35,1.19,14.28,14.28,0,0,0-5,3.36,15.66,15.66,0,0,0-3.31,5.21,18,18,0,0,0-1.21,6.7,18.75,18.75,0,0,0,1.21,6.8,16.63,16.63,0,0,0,3.31,5.44,15.26,15.26,0,0,0,11.37,4.89h18.13v-21H547.34l-4.89,7.48H556v4.87h-10a8.22,8.22,0,0,1-3.11-.58,7.17,7.17,0,0,1-4.08-4.16,9.06,9.06,0,0,1-.57-3.29,8.71,8.71,0,0,1,.59-3.29A8,8,0,0,1,540.58,382.83Z" transform="translate(-67.91 -39.78)"/><path d="M600,372.32a5,5,0,0,0-6.29.07,10.66,10.66,0,0,0-2.08,2.61l-16.91,30.36h9.65l12.37-22.28,4.73,8.88c.44.8.91,1.66,1.4,2.58s.91,1.68,1.28,2.28a19.85,19.85,0,0,0-2.22-.1h-9.06l-4.93,8.63H618.6L602.13,375A9.5,9.5,0,0,0,600,372.32Z" transform="translate(-67.91 -39.78)"/><polygon points="350.51 325.55 350.51 329.71 362.25 327.75 362.25 322.15 362.02 322.15 350.51 325.55"/><polygon points="390.86 332.01 382.7 332.01 382.7 365.59 405.99 365.59 411.27 356.96 390.86 356.96 390.86 332.01"/><polygon points="430.06 352.39 446.25 352.39 450.94 344.77 430.06 344.77 430.06 340.75 447.12 340.75 452.4 332.01 421.86 332.01 421.86 365.59 447.23 365.59 452.47 356.96 430.06 356.96 430.06 352.39"/><polygon points="298.78 332.01 290.62 332.01 290.62 365.59 313.91 365.59 319.19 356.96 298.78 356.96 298.78 332.01"/><polygon points="349.61 352.39 365.8 352.39 370.49 344.77 349.61 344.77 349.61 340.75 366.67 340.75 371.94 332.01 341.41 332.01 341.41 365.59 366.79 365.59 372.02 356.96 349.61 356.96 349.61 352.39"/><polygon points="325.5 345.46 327.98 345.46 330.38 332.01 323.09 332.01 325.5 345.46"/><path d="M653.12,391.48,637,373a5.26,5.26,0,0,0-1.75-1.48,3.91,3.91,0,0,0-1.52-.33,4.26,4.26,0,0,0-1.67.34,3.77,3.77,0,0,0-1.42,1.11,6,6,0,0,0-1,2,9.87,9.87,0,0,0-.37,2.86v27.86h7.41V385.6l16.15,18.46a5.08,5.08,0,0,0,1.71,1.49,4,4,0,0,0,1.56.32,4.42,4.42,0,0,0,1.7-.34,3.63,3.63,0,0,0,1.44-1.13,6.19,6.19,0,0,0,1-2,9.57,9.57,0,0,0,.38-2.86v-27.8h-7.45Z" transform="translate(-67.91 -39.78)"/><path d="M1094.27,375.41q-4.83-4.16-14.44-4.16t-14.46,4.16q-4.81,4.16-4.8,13.14t4.79,13.2q4.79,4.16,14.5,4.16t14.5-4.16q4.81-4.16,4.8-13.2T1094.27,375.41Zm-3.88,17.54a5.32,5.32,0,0,1-1.91,2.63,7.87,7.87,0,0,1-3.44,1.28,41.65,41.65,0,0,1-10.41,0,7.87,7.87,0,0,1-3.44-1.28,5.32,5.32,0,0,1-1.91-2.63,16.66,16.66,0,0,1,0-8.78,5.15,5.15,0,0,1,1.91-2.61,8.1,8.1,0,0,1,3.44-1.25,41.65,41.65,0,0,1,10.41,0,8.1,8.1,0,0,1,3.44,1.25,5.15,5.15,0,0,1,1.91,2.61A16.66,16.66,0,0,1,1090.39,392.95Z" transform="translate(-67.91 -39.78)"/><polygon points="430.96 325.55 430.96 329.71 442.7 327.75 442.7 322.15 442.47 322.15 430.96 325.55"/><polygon points="657.79 352.39 673.99 352.39 678.67 344.77 657.79 344.77 657.79 340.75 674.85 340.75 680.13 332.01 649.6 332.01 649.6 365.59 674.97 365.59 680.21 356.96 657.79 356.96 657.79 352.39"/><path d="M1137.15,390.71a9.75,9.75,0,0,1-.41,3,4.53,4.53,0,0,1-1.36,2.06,5.81,5.81,0,0,1-2.52,1.16,18.42,18.42,0,0,1-3.94.35,32.49,32.49,0,0,1-5.12-.33,7.31,7.31,0,0,1-3.05-1.11,3.88,3.88,0,0,1-1.48-2,10.45,10.45,0,0,1-.4-3.11V371.79h-8.16v18.92a19.42,19.42,0,0,0,1,6.65,11.31,11.31,0,0,0,3.27,4.74,14.59,14.59,0,0,0,5.66,2.86,30.88,30.88,0,0,0,8.16,1q16.43,0,16.43-15.2V371.79h-8.16Z" transform="translate(-67.91 -39.78)"/><polygon points="1098.13 352.39 1114.32 352.39 1119.01 344.77 1098.13 344.77 1098.13 340.75 1115.18 340.75 1120.47 332.01 1089.93 332.01 1089.93 365.59 1115.3 365.59 1120.54 356.96 1098.13 356.96 1098.13 352.39"/><path d="M1044.48,396.07c-.55-.66-1.05-1.21-1.5-1.65a7.83,7.83,0,0,0,2.89-1.38,9.12,9.12,0,0,0,2.18-2.38,11.7,11.7,0,0,0,1.36-3.16,14.5,14.5,0,0,0,.47-3.71,12.16,12.16,0,0,0-1.29-5.93,10.62,10.62,0,0,0-3.25-3.63,12.27,12.27,0,0,0-4.38-1.88,21.55,21.55,0,0,0-4.65-.53h-16.93l-5.33,8.74H1037a5,5,0,0,1,3.31,1,3.57,3.57,0,0,1,1.19,2.93,3.29,3.29,0,0,1-1.31,2.72,5,5,0,0,1-3.19,1h-22.93v17.17h8.16v-8.88h12.53l5.87,8.88h10.88l-4.85-6.53C1045.77,397.67,1045.08,396.75,1044.48,396.07Z" transform="translate(-67.91 -39.78)"/><path d="M806.19,385.19H791.85a3.42,3.42,0,0,1-2.1-.53,2.15,2.15,0,0,1-.69-1.81,2.08,2.08,0,0,1,.69-1.81,3.56,3.56,0,0,1,2.1-.5h18.28l5.24-8.74H792.48a15.41,15.41,0,0,0-5.14.76,9.06,9.06,0,0,0-3.51,2.1,8.37,8.37,0,0,0-2,3.29,13.31,13.31,0,0,0-.65,4.29,12.27,12.27,0,0,0,.6,3.93,7.61,7.61,0,0,0,1.81,3,8.29,8.29,0,0,0,3.07,2,12.34,12.34,0,0,0,4.41.71H805.4a3.3,3.3,0,0,1,2.13.55,2.27,2.27,0,0,1,.67,1.81,2.38,2.38,0,0,1-.67,1.89,3.24,3.24,0,0,1-2.13.58H785.46l-5.24,8.63h24.55a15.68,15.68,0,0,0,5.14-.75,9.06,9.06,0,0,0,3.53-2.16,8.3,8.3,0,0,0,2-3.46,15.94,15.94,0,0,0,.63-4.62c0-3.07-.83-5.38-2.52-6.9S809.4,385.19,806.19,385.19Z" transform="translate(-67.91 -39.78)"/><path d="M853.63,390.71a9.73,9.73,0,0,1-.42,3,4.53,4.53,0,0,1-1.36,2.06,5.81,5.81,0,0,1-2.52,1.16,18.42,18.42,0,0,1-3.94.35,32.49,32.49,0,0,1-5.12-.33,7.31,7.31,0,0,1-3.05-1.11,3.88,3.88,0,0,1-1.48-2,10.48,10.48,0,0,1-.39-3.11V371.79h-8.16v18.92a19.42,19.42,0,0,0,1,6.65,11.31,11.31,0,0,0,3.27,4.74,14.59,14.59,0,0,0,5.66,2.86,30.88,30.88,0,0,0,8.16,1q16.43,0,16.43-15.2V371.79h-8.16Z" transform="translate(-67.91 -39.78)"/><path d="M1230.91,387.47q-2.51-2.28-7.37-2.28H1209.2a3.47,3.47,0,0,1-2.11-.53,2.18,2.18,0,0,1-.69-1.81,2.11,2.11,0,0,1,.69-1.81,3.63,3.63,0,0,1,2.11-.5h18.28l5.24-8.74h-22.89a15.41,15.41,0,0,0-5.15.76,9.07,9.07,0,0,0-3.5,2.1,8.37,8.37,0,0,0-2,3.29,13.31,13.31,0,0,0-.65,4.29,12.53,12.53,0,0,0,.59,3.93,7.83,7.83,0,0,0,1.81,3,8.44,8.44,0,0,0,3.07,2,12.39,12.39,0,0,0,4.41.71h14.34a3.3,3.3,0,0,1,2.13.55,2.27,2.27,0,0,1,.67,1.81,2.38,2.38,0,0,1-.67,1.89,3.24,3.24,0,0,1-2.13.58h-19.94l-5.24,8.63h24.55a15.68,15.68,0,0,0,5.14-.75,9.06,9.06,0,0,0,3.53-2.16,8.5,8.5,0,0,0,2-3.46,15.94,15.94,0,0,0,.63-4.62Q1233.45,389.76,1230.91,387.47Z" transform="translate(-67.91 -39.78)"/><path d="M973.05,377.51a9.87,9.87,0,0,0-.37-2.86,6,6,0,0,0-1-2,3.76,3.76,0,0,0-1.44-1.11,4.38,4.38,0,0,0-1.69-.34,4.61,4.61,0,0,0-1.71.4,5.81,5.81,0,0,0-2,1.41l-19,19.67a5.82,5.82,0,0,0-1.69,4.12,5.28,5.28,0,0,0,.27,1.7,4.53,4.53,0,0,0,.79,1.43,3.91,3.91,0,0,0,1.24,1,3.49,3.49,0,0,0,1.63.38h17.22v4h7.8v-4h2.72l4.77-8.23h-7.52Zm-7.76,8.09v7.52h-7.24a15.87,15.87,0,0,0-1.93.15c.5-.4,1-.91,1.6-1.42s1.21-1.21,1.95-2l2.91-3c1.29-1.33,2.25-2.41,2.88-3.21a11.74,11.74,0,0,0-.15,1.9Z" transform="translate(-67.91 -39.78)"/><path d="M904.65,396.07c-.55-.66-1.05-1.21-1.5-1.65a7.94,7.94,0,0,0,2.9-1.38,9.25,9.25,0,0,0,2.17-2.38,11.7,11.7,0,0,0,1.36-3.16,14.5,14.5,0,0,0,.47-3.71,12.16,12.16,0,0,0-1.29-5.93,10.62,10.62,0,0,0-3.25-3.63,12.27,12.27,0,0,0-4.38-1.88,21.53,21.53,0,0,0-4.64-.53H879.56l-5.32,8.74h22.92a5,5,0,0,1,3.31,1,3.57,3.57,0,0,1,1.19,2.93,3.31,3.31,0,0,1-1.3,2.72,5.09,5.09,0,0,1-3.2,1H874.24v17.17h8.16v-8.88h12.54l5.86,8.88h10.88l-4.84-6.53C905.94,397.67,905.2,396.75,904.65,396.07Z" transform="translate(-67.91 -39.78)"/></svg>